<svg viewBox="0 0 24 24" fill="none" xmlns="http://www.w3.org/2000/svg">
<path d="M13.5 4H19.5C19.7812 4 20 4.21875 20 4.5V10.5C20 10.7812 19.7812 11 19.5 11C19.2188 11 19 10.7812 19 10.5V5.71875L10.8438 13.8438C10.6562 14.0625 10.3438 14.0625 10.1562 13.8438C9.96875 13.6562 9.96875 13.3438 10.1562 13.1562L18.2812 5H13.5C13.2188 5 13 4.78125 13 4.5C13 4.21875 13.2188 4 13.5 4ZM6.5 7H9.5C9.78125 7 10 7.21875 10 7.5C10 7.78125 9.78125 8 9.5 8H6.5C5.6875 8 5 8.6875 5 9.5V17.5C5 18.3438 5.6875 19 6.5 19H14.5C15.3438 19 16 18.3438 16 17.5V14.5C16 14.2188 16.2188 14 16.5 14C16.7812 14 17 14.2188 17 14.5V17.5C17 18.875 15.875 20 14.5 20H6.5C5.125 20 4 18.875 4 17.5V9.5C4 8.125 5.125 7 6.5 7Z" fill="currentColor"/>
</svg>
