<svg viewBox="0 0 24 24" fill="none" xmlns="http://www.w3.org/2000/svg">
<path d="M12 4C12.2812 4 12.5 4.21875 12.5 4.5V5.03125C15.0312 5.28125 17 7.40625 17 10V10.3125C17 11.7188 17.4688 13.0938 18.375 14.1875L18.6875 14.5938C18.875 14.8438 19 15.1875 19 15.5312C19 16.3438 18.3438 17 17.5312 17H6.46875C5.65625 17 5 16.3438 5 15.5312C5 15.1875 5.125 14.8438 5.3125 14.5938L5.65625 14.1875C6.53125 13.0938 7 11.7188 7 10.3125V10C7 7.40625 8.96875 5.28125 11.5 5.03125V4.5C11.5 4.21875 11.7188 4 12 4ZM12 6C9.78125 6 8 7.78125 8 10V10.3125C8 11.9688 7.4375 13.5625 6.4375 14.8125L6.09375 15.2188C6.03125 15.3125 6 15.4062 6 15.5312C6 15.7812 6.21875 16 6.46875 16H17.5312C17.7812 16 18 15.7812 18 15.5312C18 15.4062 17.9688 15.3125 17.9062 15.2188L17.5938 14.8125C16.5625 13.5625 16 11.9688 16 10.3125V10C16 7.78125 14.2188 6 12 6ZM9.875 18.5H11C11.2188 18.8125 11.5938 19 12 19C12.4062 19 12.7812 18.8125 13 18.5H14.125C13.8125 19.375 12.9688 20 12 20C11.0312 20 10.1875 19.375 9.875 18.5Z" fill="currentColor"/>
</svg>
