<svg viewBox="0 0 24 24" fill="none" xmlns="http://www.w3.org/2000/svg">
<path d="M12 5C8.125 5 5 8.125 5 12C5 15.875 8.125 19 12 19C15.875 19 19 15.875 19 12C19 8.125 15.875 5 12 5ZM12 20C7.59375 20 4 16.4062 4 12C4 7.59375 7.59375 4 12 4C16.4062 4 20 7.59375 20 12C20 16.4062 16.4062 20 12 20ZM9.15625 9.15625C9.34375 8.96875 9.65625 8.96875 9.84375 9.15625L12 11.2812L14.1562 9.15625C14.3438 8.96875 14.6562 8.96875 14.8438 9.15625C15.0625 9.34375 15.0625 9.65625 14.8438 9.84375L12.7188 12L14.8438 14.1562C15.0625 14.3438 15.0625 14.6562 14.8438 14.8438C14.6562 15.0625 14.3438 15.0625 14.1562 14.8438L12 12.7188L9.84375 14.8438C9.65625 15.0625 9.34375 15.0625 9.15625 14.8438C8.96875 14.6562 8.96875 14.3438 9.15625 14.1562L11.2812 12L9.15625 9.84375C8.96875 9.65625 8.96875 9.34375 9.15625 9.15625Z" fill="currentColor"/>
</svg>
