<svg viewBox="0 0 24 24" fill="none" xmlns="http://www.w3.org/2000/svg">
<path d="M12 5C8.125 5 5 8.125 5 12C5 15.875 8.125 19 12 19C15.875 19 19 15.875 19 12C19 8.125 15.875 5 12 5ZM12 20C7.59375 20 4 16.4062 4 12C4 7.59375 7.59375 4 12 4C16.4062 4 20 7.59375 20 12C20 16.4062 16.4062 20 12 20ZM10.5 15H11.5V12H10.5C10.2188 12 10 11.7812 10 11.5C10 11.2188 10.2188 11 10.5 11H12C12.2812 11 12.5 11.2188 12.5 11.5V15H13.5C13.7812 15 14 15.2188 14 15.5C14 15.7812 13.7812 16 13.5 16H10.5C10.2188 16 10 15.7812 10 15.5C10 15.2188 10.2188 15 10.5 15ZM12 9.75C11.5938 9.75 11.25 9.40625 11.25 9C11.25 8.59375 11.5938 8.25 12 8.25C12.4062 8.25 12.75 8.59375 12.75 9C12.75 9.40625 12.4062 9.75 12 9.75Z" fill="currentColor"/>
</svg>
