<svg viewBox="0 0 24 24" fill="none" xmlns="http://www.w3.org/2000/svg">
<path d="M12 20C7.59375 20 4 16.4062 4 12C4 7.59375 7.59375 4 12 4C16.4062 4 20 7.59375 20 12C20 16.4062 16.4062 20 12 20ZM12 5C8.125 5 5 8.125 5 12C5 15.875 8.125 19 12 19C15.875 19 19 15.875 19 12C19 8.125 15.875 5 12 5ZM12 16C11.5938 16 11.25 15.6562 11.25 15.25C11.25 14.8438 11.5938 14.5 12 14.5C12.4062 14.5 12.75 14.8438 12.75 15.25C12.75 15.6562 12.4062 16 12 16ZM12 8C12.4375 8 12.75 8.34375 12.75 8.78125L12.5 13.0312C12.4688 13.2812 12.25 13.5 12 13.5C11.7188 13.5 11.5 13.2812 11.5 13.0312L11.25 8.78125C11.25 8.34375 11.5625 8 12 8Z" fill="currentColor"/>
</svg>
