<svg viewBox="0 0 24 24" fill="none" xmlns="http://www.w3.org/2000/svg">
<path d="M12 20C7.59375 20 4 16.4062 4 12C4 7.59375 7.59375 4 12 4C16.4062 4 20 7.59375 20 12C20 16.4062 16.4062 20 12 20ZM15.6875 8.5625C15.3438 8.3125 14.875 8.375 14.6562 8.71875L10.9062 13.8438L9.28125 12.2188C9 11.9375 8.5 11.9375 8.21875 12.2188C7.9375 12.5312 7.9375 13 8.21875 13.2812L10.4688 15.5312C10.625 15.6875 10.8438 15.7812 11.0625 15.75C11.2812 15.75 11.4688 15.625 11.5938 15.4375L15.8438 9.59375C16.0938 9.28125 16.0312 8.8125 15.6875 8.5625Z" fill="currentColor"/>
</svg>
