<svg viewBox="0 0 24 24" fill="none" xmlns="http://www.w3.org/2000/svg">
<path d="M12 20C7.59375 20 4 16.4062 4 12C4 7.59375 7.59375 4 12 4C16.4062 4 20 7.59375 20 12C20 16.4062 16.4062 20 12 20ZM12 5C8.125 5 5 8.125 5 12C5 15.875 8.125 19 12 19C15.875 19 19 15.875 19 12C19 8.125 15.875 5 12 5ZM14.5938 9.21875C14.75 9 15.0625 8.9375 15.2812 9.09375C15.5312 9.25 15.5625 9.5625 15.4062 9.78125L11.4062 15.2812C11.3125 15.4062 11.1875 15.5 11.0312 15.5C10.9062 15.5 10.75 15.4688 10.6562 15.3438L8.65625 13.3438C8.4375 13.1562 8.4375 12.8438 8.65625 12.6562C8.84375 12.4688 9.15625 12.4688 9.34375 12.6562L10.9375 14.2188L14.5938 9.21875Z" fill="currentColor"/>
</svg>
