<svg viewBox="0 0 24 24" fill="none" xmlns="http://www.w3.org/2000/svg">
<path d="M7 9.5C7 9.84375 7.0625 10.1562 7.125 10.4688C7.15625 10.5938 7.15625 10.7188 7.09375 10.8438C7 10.9688 6.90625 11.0625 6.75 11.0938C5.1875 11.4062 4 12.8125 4 14.5C4 16.4375 5.5625 18 7.5 18H17C18.6562 18 20 16.6562 20 15C20 13.6875 19.1562 12.5938 18 12.1562C17.875 12.125 17.75 12.0312 17.6875 11.875C17.6562 11.75 17.6562 11.5938 17.7188 11.4688C17.9062 11.0938 18 10.6875 18 10.25C18 8.71875 16.7812 7.5 15.25 7.5C14.8125 7.5 14.4375 7.59375 14.0625 7.78125C13.8438 7.875 13.5625 7.8125 13.4375 7.59375C12.8125 6.625 11.7188 6 10.5 6C8.5625 6 7 7.5625 7 9.5ZM10.5 5C11.9375 5 13.1875 5.65625 14.0312 6.71875C14.4062 6.5625 14.8125 6.5 15.25 6.5C17.3125 6.5 19 8.1875 19 10.25C19 10.6562 18.9375 11.0625 18.8125 11.4375C20.125 12.0938 21 13.4375 21 15C21 17.2188 19.2188 19 17 19H7.5C5.03125 19 3 17 3 14.5C3 12.5312 4.28125 10.8438 6.0625 10.25C6.03125 10 6 9.75 6 9.5C6 7.03125 8.03125 5 10.5 5ZM14.5938 13.5938L12.3438 15.8438C12.1562 16.0625 11.8438 16.0625 11.6562 15.8438L9.40625 13.5938C9.21875 13.4062 9.21875 13.0938 9.40625 12.9062C9.59375 12.7188 9.90625 12.7188 10.0938 12.9062L11.5 14.2812V10.5C11.5 10.2188 11.7188 10 12 10C12.2812 10 12.5 10.2188 12.5 10.5V14.2812L13.9062 12.9062C14.0938 12.7188 14.4062 12.7188 14.5938 12.9062C14.8125 13.0938 14.8125 13.4062 14.5938 13.5938Z" fill="currentColor"/>
</svg>
