<svg viewBox="0 0 24 24" fill="none" xmlns="http://www.w3.org/2000/svg">
<path d="M12.0078 6C7.60156 6 4.85156 10 4.00781 12C4.85156 14 7.60156 18 12.0078 18C16.4141 18 19.1641 14 20.0078 12C19.1641 10 16.4141 6 12.0078 6ZM5.97656 7.53125C7.47656 6.15625 9.47656 5 12.0078 5C14.5391 5 16.5703 6.15625 18.0391 7.53125C19.4766 8.875 20.4766 10.5 20.9453 11.625C21.0391 11.875 21.0391 12.125 20.9453 12.375C20.4766 13.5 19.4766 15.125 18.0391 16.4688C16.5703 17.8438 14.5391 19 12.0078 19C9.47656 19 7.47656 17.8438 5.97656 16.4688C4.53906 15.125 3.53906 13.5 3.07031 12.375C2.97656 12.125 2.97656 11.875 3.07031 11.625C3.53906 10.5 4.53906 8.875 5.97656 7.53125ZM12.0078 15C13.6641 15 15.0078 13.6562 15.0078 12C15.0078 10.6562 14.1016 9.5 12.8828 9.125C12.9766 9.40625 13.0078 9.6875 13.0078 10C13.0078 11.6562 11.6641 13 10.0078 13C9.69531 13 9.41406 12.9688 9.13281 12.875C9.50781 14.0938 10.6641 15 12.0078 15ZM8.00781 12.25C8.00781 12.1562 8.00781 12.0938 8.00781 12C8.00781 11.625 8.07031 11.25 8.16406 10.9062C8.16406 10.875 8.16406 10.8438 8.19531 10.8125C8.57031 9.5625 9.57031 8.5625 10.8203 8.1875C11.1953 8.0625 11.6016 8 12.0078 8C12.1016 8 12.1641 8 12.2578 8C14.3516 8.125 16.0078 9.875 16.0078 12C16.0078 14.2188 14.2266 16 12.0078 16C9.88281 16 8.13281 14.3438 8.00781 12.25ZM9.00781 11.75C9.32031 11.9062 9.63281 12 10.0078 12C11.1016 12 12.0078 11.0938 12.0078 10C12.0078 9.65625 11.9141 9.3125 11.7578 9.03125C10.2891 9.15625 9.13281 10.2812 9.00781 11.75Z" fill="currentColor"/>
</svg>
