<svg viewBox="0 0 24 24" fill="none" xmlns="http://www.w3.org/2000/svg">
<path d="M3.85156 3.14062L7.22656 6.51562C8.53906 5.60938 10.1328 4.98438 12.0078 4.98438C14.5391 4.98438 16.5391 6.14062 18.0391 7.51562C19.4766 8.85938 20.4766 10.4844 20.9453 11.6094C21.0391 11.8594 21.0391 12.1094 20.9453 12.3594C20.4766 13.4844 19.4766 15.1094 18.0391 16.4531C17.8828 16.6094 17.7266 16.7344 17.5703 16.8594L20.8516 20.1406C21.0703 20.3281 21.0703 20.6406 20.8516 20.8281C20.6641 21.0469 20.3516 21.0469 20.1641 20.8281L3.16406 3.82812C2.94531 3.64062 2.94531 3.32812 3.16406 3.14062C3.35156 2.95312 3.66406 2.95312 3.85156 3.14062ZM7.94531 7.23438L9.57031 8.82812C10.2266 8.29688 11.0703 7.98438 12.0078 7.98438C14.2266 7.98438 16.0078 9.76562 16.0078 11.9844C16.0078 12.9219 15.6953 13.7656 15.1641 14.4531L16.8828 16.1406C17.0391 16.0156 17.1953 15.8906 17.3516 15.7344C18.6953 14.4844 19.6016 12.9844 20.0078 11.9844C19.1641 9.98438 16.4141 5.98438 12.0078 5.98438C10.4453 5.98438 9.10156 6.48438 7.94531 7.23438ZM14.4453 13.7344C14.7891 13.2344 15.0078 12.6406 15.0078 11.9844C15.0078 10.3281 13.6641 8.98438 12.0078 8.98438C11.3516 8.98438 10.7578 9.20312 10.2578 9.54688L14.4453 13.7344ZM5.35156 8.14062L6.03906 8.85938C5.03906 9.95312 4.35156 11.1406 4.00781 11.9844C4.85156 13.9844 7.60156 17.9844 12.0078 17.9844C12.9766 17.9844 13.8516 17.7969 14.6641 17.4844L15.4453 18.2344C14.4141 18.7031 13.2891 18.9844 12.0078 18.9844C9.47656 18.9844 7.47656 17.8281 6.00781 16.4531C4.53906 15.1094 3.53906 13.4844 3.10156 12.3594C2.97656 12.1094 2.97656 11.8594 3.10156 11.6094C3.47656 10.6719 4.22656 9.35938 5.35156 8.14062Z" fill="currentColor"/>
</svg>
