<svg viewBox="0 0 24 24" fill="none" xmlns="http://www.w3.org/2000/svg">
<path d="M4.07527 5.625C4.23152 5.25 4.60652 5 5.01277 5H19.0128C19.419 5 19.794 5.25 19.9503 5.625C20.1065 6 20.0128 6.4375 19.7315 6.71875L14.0128 12.4062V18C14.0128 18.4062 13.7628 18.7812 13.3878 18.9375C13.0128 19.0938 12.6065 19 12.294 18.7188L10.294 16.7188C10.1065 16.5312 10.0128 16.2812 10.0128 16V12.4062L4.29402 6.71875C4.01277 6.4375 3.91902 6 4.07527 5.625ZM19.0128 6H5.01277L10.8565 11.8438C10.9503 11.9375 11.0128 12.0625 11.0128 12.2188V16L13.0128 18V12.2188C13.0128 12.0625 13.0753 11.9375 13.169 11.8438L19.0128 6Z" fill="currentColor"/>
</svg>
