<svg viewBox="0 0 24 24" fill="none" xmlns="http://www.w3.org/2000/svg">
<path d="M9.89124 7C9.67249 7.125 9.48499 7.21875 9.29749 7.34375C9.04749 7.53125 8.73499 7.5625 8.42249 7.46875L6.17249 6.71875L5.01624 8.78125L6.76624 10.3438C6.98499 10.5625 7.10999 10.8438 7.10999 11.1562C7.07874 11.375 7.07874 11.625 7.10999 11.8438C7.10999 12.1562 6.98499 12.4688 6.76624 12.6562L5.01624 14.2188L6.17249 16.2812L8.42249 15.5312C8.73499 15.4375 9.04749 15.5 9.29749 15.6562C9.48499 15.7812 9.67249 15.9062 9.89124 16C10.1725 16.125 10.36 16.4062 10.4225 16.6875L10.8912 19H13.2662L13.735 16.6875C13.7975 16.4062 14.0162 16.125 14.2975 16C14.485 15.9062 14.6725 15.7812 14.86 15.6562C15.1412 15.5 15.4537 15.4375 15.735 15.5312L17.985 16.2812L19.1725 14.2188L17.3912 12.6562C17.1725 12.4688 17.0475 12.1562 17.0787 11.8438C17.0787 11.7188 17.0787 11.625 17.0787 11.5C17.0787 11.375 17.0787 11.2812 17.0787 11.1562C17.0475 10.8438 17.1725 10.5625 17.3912 10.3438L19.1725 8.78125L17.985 6.71875L15.735 7.46875C15.4537 7.5625 15.1412 7.53125 14.86 7.34375C14.6725 7.21875 14.485 7.125 14.2975 7C14.0162 6.875 13.7975 6.625 13.735 6.3125L13.2662 4H10.8912L10.4225 6.3125C10.36 6.625 10.1725 6.875 9.89124 7ZM13.2662 3C13.735 3 14.1725 3.34375 14.2662 3.8125L14.735 6.125C14.985 6.21875 15.2037 6.375 15.4225 6.53125L17.6725 5.78125C18.11 5.625 18.61 5.8125 18.86 6.21875L20.0475 8.28125C20.2662 8.6875 20.2037 9.21875 19.8287 9.53125L18.0787 11.0938C18.11 11.375 18.11 11.6562 18.0787 11.9062L19.8287 13.4688C20.2037 13.7812 20.2662 14.3125 20.0475 14.7188L18.86 16.7812C18.61 17.1875 18.1412 17.375 17.6725 17.2188L15.4537 16.4688C15.2037 16.625 14.985 16.7812 14.735 16.9062L14.2662 19.2188C14.1725 19.6562 13.7662 20 13.2662 20H10.9225C10.4225 20 10.0162 19.6562 9.92249 19.2188L9.45374 16.9062C9.20374 16.7812 8.98499 16.625 8.76624 16.4688L6.51624 17.2188C6.04749 17.375 5.54749 17.1875 5.32874 16.7812L4.14124 14.7188C3.89124 14.3125 3.98499 13.7812 4.32874 13.4688L6.10999 11.9062C6.07874 11.625 6.07874 11.375 6.10999 11.0938L4.32874 9.53125C3.98499 9.21875 3.89124 8.6875 4.14124 8.28125L5.32874 6.21875C5.54749 5.8125 6.04749 5.625 6.51624 5.78125L8.73499 6.53125C8.95374 6.375 9.20374 6.21875 9.45374 6.125L9.92249 3.8125C10.0162 3.34375 10.4225 3 10.8912 3H13.2662ZM10.3287 11.5C10.3287 12.4688 11.11 13.25 12.0787 13.25C13.0475 13.25 13.8287 12.4688 13.8287 11.5C13.8287 10.5312 13.0475 9.75 12.0787 9.75C11.11 9.75 10.3287 10.5312 10.3287 11.5ZM12.0787 14.25C10.5475 14.25 9.32874 13 9.32874 11.5C9.32874 9.96875 10.5787 8.75 12.0787 8.75C13.61 8.75 14.8287 10 14.8287 11.5C14.8287 13.0312 13.5787 14.25 12.0787 14.25Z" fill="currentColor"/>
</svg>
