<svg viewBox="0 0 24 24" fill="none" xmlns="http://www.w3.org/2000/svg">
<path d="M16 10.5C16 7.46875 13.5312 5 10.5 5C7.46875 5 5 7.46875 5 10.5C5 13.5312 7.46875 16 10.5 16C13.5312 16 16 13.5312 16 10.5ZM14.7188 15.4375C13.5938 16.4062 12.125 17 10.5 17C6.90625 17 4 14.0938 4 10.5C4 6.90625 6.90625 4 10.5 4C14.0938 4 17 6.90625 17 10.5C17 12.125 16.4062 13.5938 15.4375 14.7188L19.8438 19.1562C20.0625 19.3438 20.0625 19.6562 19.8438 19.8438C19.6562 20.0625 19.3438 20.0625 19.1562 19.8438L14.7188 15.4375Z" fill="currentColor"/>
</svg>
