<svg viewBox="0 0 24 24" fill="none" xmlns="http://www.w3.org/2000/svg">
<path d="M16.6305 5C16.2868 5 15.9743 5.125 15.7555 5.375L13.9118 7.1875L16.818 10.0938L18.6305 8.28125C18.8805 8.03125 19.0055 7.71875 19.0055 7.375C19.0055 7.03125 18.8805 6.71875 18.6305 6.5L17.5368 5.375C17.2868 5.125 16.9743 5 16.6305 5ZM6.91178 14.1875L9.81803 17.0938L16.0993 10.8125L13.193 7.90625L6.91178 14.1875ZM6.25553 14.9688C6.19303 15.0625 6.13053 15.1875 6.09928 15.3125L5.13053 18.9062L8.69303 17.9062C8.81803 17.875 8.94303 17.8125 9.03678 17.75L6.25553 14.9688ZM15.0368 4.65625C15.443 4.25 16.0368 4 16.6305 4C17.2243 4 17.818 4.25 18.2243 4.65625L19.3493 5.78125C19.7555 6.1875 20.0055 6.78125 20.0055 7.375C20.0055 7.96875 19.7555 8.5625 19.3493 8.96875L10.1618 18.1562C9.81803 18.5 9.41178 18.75 8.94303 18.875L4.94303 19.9688C4.69303 20.0312 4.41178 19.9688 4.22428 19.7812C4.03678 19.5938 3.94303 19.3125 4.03678 19.0625L5.13053 15.0625C5.28678 14.5938 5.50553 14.1875 5.84928 13.8438L15.0368 4.65625Z" fill="currentColor"/>
</svg>
