<svg viewBox="0 0 24 24" fill="none" xmlns="http://www.w3.org/2000/svg">
<path d="M12.2868 4.40625L14.568 8.90625L19.568 9.71875C19.8493 9.75 20.068 9.9375 20.1618 10.2188C20.2555 10.5 20.193 10.7812 19.9743 10.9688L16.4118 14.5625L17.193 19.5625C17.2243 19.8438 17.1305 20.125 16.8805 20.2812C16.6618 20.4375 16.3493 20.4688 16.0993 20.3438L11.5993 18.0625L7.09928 20.3438C6.84928 20.4688 6.53678 20.4375 6.31803 20.2812C6.06803 20.125 5.97428 19.8438 6.00553 19.5625L6.78678 14.5625L3.22428 10.9688C3.03678 10.7812 2.94303 10.5 3.03678 10.2188C3.13053 9.9375 3.34928 9.75 3.63053 9.71875L8.63053 8.90625L10.943 4.40625C11.068 4.15625 11.318 4 11.5993 4C11.8805 4 12.1305 4.15625 12.2868 4.40625Z" fill="currentColor"/>
</svg>
