<svg viewBox="0 0 24 24" fill="none" xmlns="http://www.w3.org/2000/svg">
<path d="M8 8C5.78125 8 4 9.78125 4 12C4 14.2188 5.78125 16 8 16H16C18.2188 16 20 14.2188 20 12C20 9.78125 18.2188 8 16 8H8ZM3 12C3 9.25 5.25 7 8 7H16C18.75 7 21 9.25 21 12C21 14.75 18.75 17 16 17H8C5.25 17 3 14.75 3 12ZM18 12C18 10.9062 17.0938 10 16 10C14.9062 10 14 10.9062 14 12C14 13.0938 14.9062 14 16 14C17.0938 14 18 13.0938 18 12ZM13 12C13 10.3438 14.3438 9 16 9C17.6562 9 19 10.3438 19 12C19 13.6562 17.6562 15 16 15C14.3438 15 13 13.6562 13 12Z" fill="currentColor"/>
</svg>
