<svg viewBox="0 0 24 24" fill="none" xmlns="http://www.w3.org/2000/svg">
<path d="M10.0312 5.34375L9.6875 6.5H14.3438L14 5.34375C13.9375 5.15625 13.7188 5 13.5 5H10.5C10.2812 5 10.0938 5.15625 10.0312 5.34375ZM8.625 6.5L9.0625 5.0625C9.25 4.4375 9.84375 4 10.5 4H13.5C14.1562 4 14.75 4.4375 14.9375 5.0625L15.375 6.5H18.5C18.7812 6.5 19 6.71875 19 7C19 7.28125 18.7812 7.5 18.5 7.5H5.5C5.21875 7.5 5 7.28125 5 7C5 6.71875 5.21875 6.5 5.5 6.5H8.625ZM6 9H7V18.5C7 19.0625 7.4375 19.5 8 19.5H16C16.5625 19.5 17 19.0625 17 18.5V9H18V18.5C18 19.5938 17.0938 20.5 16 20.5H8C6.90625 20.5 6 19.5938 6 18.5V9ZM9.5 11V17C9.5 17.2812 9.28125 17.5 9 17.5C8.71875 17.5 8.5 17.2812 8.5 17V11C8.5 10.7188 8.71875 10.5 9 10.5C9.28125 10.5 9.5 10.7188 9.5 11ZM12.5 11V17C12.5 17.2812 12.2812 17.5 12 17.5C11.7188 17.5 11.5 17.2812 11.5 17V11C11.5 10.7188 11.7188 10.5 12 10.5C12.2812 10.5 12.5 10.7188 12.5 11ZM15.5 11V17C15.5 17.2812 15.2812 17.5 15 17.5C14.7188 17.5 14.5 17.2812 14.5 17V11C14.5 10.7188 14.7188 10.5 15 10.5C15.2812 10.5 15.5 10.7188 15.5 11Z" fill="currentColor"/>
</svg>
