<svg viewBox="0 0 24 24" fill="none" xmlns="http://www.w3.org/2000/svg">
<path d="M12.0119 4C12.4494 4 12.8869 4.25 13.1057 4.65625L19.8557 17.1562C20.0432 17.5312 20.0432 18 19.8244 18.4062C19.6057 18.7812 19.1994 19 18.7619 19H5.26194C4.79319 19 4.38694 18.7812 4.16819 18.4062C3.94944 18 3.94944 17.5312 4.13694 17.1562L10.8869 4.65625C11.1057 4.25 11.5432 4 12.0119 4ZM12.0119 5C11.9182 5 11.8244 5.0625 11.7932 5.125L5.04319 17.625C4.98069 17.7188 4.98069 17.8125 5.04319 17.875C5.07444 17.9688 5.16819 18 5.26194 18H18.7619C18.8244 18 18.9182 17.9688 18.9807 17.875C19.0119 17.8125 19.0119 17.7188 18.9807 17.625L12.2307 5.125C12.1682 5.0625 12.1057 5 12.0119 5ZM12.0119 16.5C11.5744 16.5 11.2619 16.1562 11.2619 15.75C11.2619 15.3438 11.5744 15 12.0119 15C12.4182 15 12.7619 15.3438 12.7619 15.75C12.7619 16.1562 12.4182 16.5 12.0119 16.5ZM12.0119 9.5C12.4182 9.5 12.7619 9.875 12.7307 10.2812L12.5119 13.5312C12.4807 13.8125 12.2619 14 12.0119 14C11.7307 14 11.5119 13.8125 11.5119 13.5312L11.2619 10.2812C11.2307 9.875 11.5744 9.5 12.0119 9.5Z" fill="currentColor"/>
</svg>
