<svg viewBox="0 0 24 24" fill="none" xmlns="http://www.w3.org/2000/svg">
<path d="M9 8C9 9.65625 10.3438 11 12 11C13.6562 11 15 9.65625 15 8C15 6.34375 13.6562 5 12 5C10.3438 5 9 6.34375 9 8ZM16 8C16 10.2188 14.2188 12 12 12C9.78125 12 8 10.2188 8 8C8 5.78125 9.78125 4 12 4C14.2188 4 16 5.78125 16 8ZM6 19V19.5C6 19.7812 5.78125 20 5.5 20C5.21875 20 5 19.7812 5 19.5V19C5 15.9688 7.46875 13.5 10.5 13.5H13.5C16.5312 13.5 19 15.9688 19 19V19.5C19 19.7812 18.7812 20 18.5 20C18.2188 20 18 19.7812 18 19.5V19C18 16.5312 16 14.5 13.5 14.5H10.5C8.03125 14.5 6 16.5312 6 19Z" fill="currentColor"/>
</svg>
