<svg viewBox="0 0 24 24" fill="none" xmlns="http://www.w3.org/2000/svg">
<path d="M17.8516 6.82812L12.7266 11.9844L17.8516 17.1406C18.0703 17.3281 18.0703 17.6406 17.8516 17.8281C17.6641 18.0469 17.3516 18.0469 17.1641 17.8281L12.0078 12.7031L6.85156 17.8281C6.66406 18.0469 6.35156 18.0469 6.16406 17.8281C5.94531 17.6406 5.94531 17.3281 6.16406 17.1406L11.2891 11.9844L6.16406 6.82812C5.94531 6.64062 5.94531 6.32812 6.16406 6.14062C6.35156 5.95312 6.66406 5.95312 6.85156 6.14062L12.0078 11.2656L17.1641 6.14062C17.3516 5.95312 17.6641 5.95312 17.8516 6.14062C18.0703 6.32812 18.0703 6.64062 17.8516 6.82812Z" fill="currentColor"/>
</svg>
