<svg width="340" height="120" viewBox="0 0 340 120" fill="none" xmlns="http://www.w3.org/2000/svg">
<rect width="340" height="120" fill="#F5F5F5"/>
<g id="Logo">
<path d="M-172 -3267.04C-172 -3268.14 -171.105 -3269.04 -170 -3269.04H981C982.105 -3269.04 983 -3268.14 983 -3267.04V414.965C983 416.07 982.105 416.965 981 416.965H-170C-171.105 416.965 -172 416.069 -172 414.965V-3267.04Z" fill="white" fill-opacity="0.3"/>
<path d="M-170 -3269.04V-3268.04H981V-3269.04V-3270.04H-170V-3269.04ZM983 -3267.04H982V414.965H983H984V-3267.04H983ZM981 416.965V415.965H-170V416.965V417.965H981V416.965ZM-172 414.965H-171V-3267.04H-172H-173V414.965H-172ZM-170 416.965V415.965C-170.552 415.965 -171 415.517 -171 414.965H-172H-173C-173 416.622 -171.657 417.965 -170 417.965V416.965ZM983 414.965H982C982 415.517 981.552 415.965 981 415.965V416.965V417.965C982.657 417.965 984 416.622 984 414.965H983ZM981 -3269.04V-3268.04C981.552 -3268.04 982 -3267.59 982 -3267.04H983H984C984 -3268.69 982.657 -3270.04 981 -3270.04V-3269.04ZM-170 -3269.04V-3270.04C-171.657 -3270.04 -173 -3268.69 -173 -3267.04H-172H-171C-171 -3267.59 -170.552 -3268.04 -170 -3268.04V-3269.04Z" fill="black" fill-opacity="0.6"/>
<g id="Logo_2">
<rect x="-37.5" y="-3041.54" width="886" height="3343.63" rx="4.5" stroke="#9747FF" stroke-dasharray="10 5"/>
<g id="type=byot-vertical-lockup, density=large">
<g id="logo" clip-path="url(#clip0_30495_29555)">
<path id="Powered by" d="M25.5599 41V28.0006H30.9083C32.6168 28.0006 33.5639 28.3348 34.2696 28.9662C35.0124 29.6348 35.4209 30.619 35.4209 31.8075C35.4209 33.0703 34.9567 34.0917 34.1024 34.7603C33.0068 35.6145 31.6697 35.6331 30.2769 35.6331H27.2313V41H25.5599ZM27.2313 29.3376V34.296H30.9083C32.6168 34.296 33.8053 33.5717 33.8053 31.8075C33.8053 30.0248 32.5611 29.3376 30.8711 29.3376H27.2313ZM40.7675 31.1761C43.6274 31.1761 45.4845 33.0889 45.4845 36.1902C45.4845 39.2544 43.646 41.2414 40.7675 41.2414C37.8705 41.2414 36.0506 39.3101 36.0506 36.1902C36.0506 33.126 37.9077 31.1761 40.7675 31.1761ZM40.7675 32.4204C38.5948 32.4204 37.6848 34.0917 37.6848 36.2088C37.6848 38.3073 38.6505 39.9786 40.7675 39.9786C42.8846 39.9786 43.8503 38.3073 43.8503 36.2088C43.8503 34.0917 42.8846 32.4204 40.7675 32.4204ZM48.994 41L45.967 31.4361H47.6012L49.0126 36.4131C49.254 37.2487 49.6254 38.623 49.8297 39.2729H49.8669C50.1269 38.3258 50.3868 37.3787 50.6654 36.3573L52.0211 31.4361H53.6924L55.0109 36.3016C55.3081 37.3973 55.5123 38.0658 55.828 39.2729H55.8652C56.3109 37.6944 56.4594 37.1559 56.7009 36.3202L58.0937 31.4361H59.7093L56.6451 41H54.9924L53.6367 36.1345C53.321 35.0203 53.1167 34.2589 52.8567 33.256H52.8196C52.5782 34.2031 52.3182 35.2245 52.0396 36.2273L50.684 41H48.994ZM69.1782 36.4873H61.7499C61.7499 38.5115 62.9756 39.96 64.8698 39.96C66.6525 39.96 67.3211 38.7901 67.5997 37.9173H69.1782C68.6582 39.9229 67.1168 41.2414 64.8141 41.2414C61.8799 41.2414 60.1714 39.3472 60.1714 36.1902C60.1714 33.256 61.9542 31.1761 64.8141 31.1761C67.8411 31.1761 69.1782 33.3675 69.1782 36.4873ZM61.7685 35.3174H67.5254C67.4511 33.7017 66.504 32.3647 64.7583 32.3647C62.9198 32.3647 61.8613 33.7017 61.7685 35.3174ZM75.1097 32.6061C74.404 32.6061 73.7355 32.8846 73.2712 33.4232C72.8255 33.9246 72.5656 34.6674 72.5656 35.7445V41H71.0056V31.4361H72.5098V32.9032H72.5656C72.9184 31.9932 73.9584 31.1761 75.2769 31.1761C75.5554 31.1761 75.7597 31.2133 75.8526 31.2318V32.6618C75.5183 32.6061 75.2769 32.6061 75.1097 32.6061ZM85.1018 36.4873H77.6735C77.6735 38.5115 78.8992 39.96 80.7934 39.96C82.5761 39.96 83.2447 38.7901 83.5232 37.9173H85.1018C84.5818 39.9229 83.0404 41.2414 80.7377 41.2414C77.8035 41.2414 76.095 39.3472 76.095 36.1902C76.095 33.256 77.8778 31.1761 80.7377 31.1761C83.7647 31.1761 85.1018 33.3675 85.1018 36.4873ZM77.6921 35.3174H83.449C83.3747 33.7017 82.4276 32.3647 80.6819 32.3647C78.8434 32.3647 77.7849 33.7017 77.6921 35.3174ZM95.156 41H93.6146V39.7929H93.5775C93.0018 40.61 91.9804 41.2414 90.5133 41.2414C88.0063 41.2414 86.2421 39.2544 86.2421 36.2273C86.2421 33.3489 88.0806 31.1576 90.6248 31.1576C92.1104 31.1576 93.0204 31.789 93.5589 32.4946H93.5961V28.0006H95.156V41ZM90.7919 32.4204C88.8606 32.4204 87.8763 34.1289 87.8763 36.2273C87.8763 38.3073 88.8791 39.96 90.8476 39.96C92.7604 39.96 93.6704 38.6415 93.6704 36.1531C93.6704 33.8132 92.6675 32.4204 90.7919 32.4204ZM101.438 28.0006H102.998V32.5875H103.035C103.611 31.7704 104.614 31.1576 106.081 31.1576C108.588 31.1576 110.352 33.1446 110.352 36.1716C110.352 39.0501 108.514 41.2414 105.969 41.2414C104.484 41.2414 103.555 40.61 103.017 39.9043H102.98V41H101.438V28.0006ZM105.802 39.9786C107.734 39.9786 108.718 38.2701 108.718 36.1716C108.718 34.0917 107.715 32.4389 105.747 32.4389C103.834 32.4389 102.924 33.7575 102.924 36.2459C102.924 38.5858 103.927 39.9786 105.802 39.9786ZM114.416 40.9443L110.683 31.4361H112.354L113.859 35.5959C114.267 36.7102 114.713 37.973 115.196 39.4215H115.233C115.604 38.2887 116.031 36.803 116.496 35.466L117.851 31.4361H119.393L115.4 42.1514C114.769 43.8413 113.914 44.2684 112.466 44.2684C112.076 44.2684 111.909 44.2499 111.649 44.2313V42.9871C111.834 43.0242 112.094 43.0242 112.354 43.0242C113.524 43.0242 113.914 42.4857 114.323 41.2414L114.416 40.9443Z" fill="black"/>
<path id="Vector" d="M91.3727 95.2357C95.3207 89.4919 97.6154 82.6506 97.6154 75.2534C97.6154 67.8562 95.3207 61.0292 91.3727 55.2853H69.1527C77.348 58.4352 83.2344 66.1744 83.2344 75.2676C83.2344 84.3609 77.348 92.1001 69.1527 95.25H91.3727V95.2357ZM52.4627 95.2357H69.1384V55.2853H52.4627V95.2357ZM30.2427 95.2357H52.4627C44.2674 92.0859 38.381 84.3466 38.381 75.2534C38.381 66.1601 44.2816 58.4352 52.4627 55.2853H30.2427C26.2947 61.0292 24 67.8705 24 75.2676C24 82.6648 26.2947 89.4919 30.2427 95.2357ZM246.286 72.4171V66.8728H245.587C241.639 66.8728 239.444 68.8682 238.646 70.9633H238.546V67.1721H232.147V92.8983H238.789V79.0161C238.789 74.6263 240.784 72.4171 244.832 72.4171H246.286ZM260.667 88.651C258.514 88.651 257.075 87.753 256.22 85.9572C255.764 84.9025 255.621 83.9618 255.621 81.4106V67.1721H248.979V81.5103C248.979 84.3609 249.179 86 249.535 87.1972C250.79 91.7866 254.324 93.6964 258.372 93.6964C262.163 93.6964 264.714 91.8436 265.912 89.8482H265.969V92.8983H272.368V67.1721H265.726V81.5531C265.726 83.805 265.527 84.9025 265.128 85.7434C264.315 87.5535 262.719 88.651 260.667 88.651ZM300.018 71.6617H303.567V86C303.567 87.0547 303.624 87.9526 303.724 88.594C304.08 91.0454 305.178 92.1856 307.173 92.6417C308.028 92.8413 309.126 92.8983 311.763 92.8983H315.012V88.4087H313.516C310.965 88.4087 310.223 88.1094 310.223 85.159V71.676H314.913V67.1721H310.223V60.0315H303.582V67.1721H300.033V71.6617H300.018ZM275.247 84.4464C275.547 91.2877 281.191 93.5397 287.077 93.5397C293.519 93.5397 298.508 90.7889 298.508 85.0023C298.508 80.0138 293.961 78.2037 289.813 77.3058L287.063 76.7072C284.312 76.1086 282.374 75.4102 282.374 73.3578C282.374 71.3624 284.269 70.5642 286.564 70.5642C289.357 70.5642 291.253 71.6189 291.609 74.8116H297.795C297.296 68.4691 292.408 66.3739 286.763 66.3739C281.319 66.3739 275.931 68.6259 275.931 74.2129C275.931 79.1586 279.879 80.812 283.927 81.7099L286.179 82.2087C289.871 83.0069 291.823 83.805 291.823 85.9002C291.823 88.3517 289.229 89.2923 287.134 89.2923C284.383 89.2923 281.789 87.7958 281.59 84.4464H275.247ZM234.356 62.7252V57.6798H206.193V62.7252H216.782V92.8983H223.781V62.7252H234.356ZM197.499 70.7638C201.19 70.7638 203.485 73.6143 203.442 77.3058H191.455C191.755 73.6143 193.95 70.7638 197.499 70.7638ZM203.542 85.4013C202.744 87.0974 201.09 88.8933 198.054 88.8933C194.762 88.8933 191.712 86.7981 191.455 81.6529H210.226V80.9972C210.226 78.9449 210.027 77.149 209.571 75.6097C208.017 70.1652 203.927 66.3739 197.484 66.3739C189.688 66.3739 184.643 72.1605 184.643 79.9568C184.643 87.696 189.588 93.5397 197.826 93.5397C203.969 93.5397 208.117 90.2473 209.913 85.4013H203.542ZM169.734 71.4194C171.886 71.4194 173.326 72.3173 174.181 74.1132C174.637 75.1679 174.78 76.1086 174.78 78.6598V92.8983H181.421V78.56C181.421 75.7095 181.222 74.0704 180.866 72.8732C179.611 68.2838 176.077 66.3739 172.029 66.3739C168.181 66.3739 165.629 68.1698 164.489 70.2222H164.432V67.1721H158.033V92.8983H164.674V78.4603C164.674 76.2083 164.874 75.1109 165.273 74.27C166.086 72.5169 167.682 71.4194 169.734 71.4194ZM137.965 62.2264C144.008 62.2264 147.201 67.6139 147.201 75.3674C147.201 83.2064 144.008 88.5084 137.965 88.5084C132.021 88.5084 128.772 83.2207 128.772 75.3674C128.772 67.6282 132.021 62.2264 137.965 62.2264ZM137.965 93.5397C148.099 93.5397 154.199 86.1995 154.199 75.3532C154.199 64.7206 147.856 57.1667 137.965 57.1667C128.173 57.1667 121.788 64.7064 121.788 75.3532C121.788 86.1995 127.774 93.5397 137.965 93.5397Z" fill="black"/>
</g>
</g>
</g>
</g>
<defs>
<clipPath id="clip0_30495_29555">
<rect width="291.012" height="71.25" fill="white" transform="translate(24 24)"/>
</clipPath>
</defs>
</svg>
