<svg width="122" height="88" viewBox="0 0 122 88" fill="none" xmlns="http://www.w3.org/2000/svg">
<rect width="122" height="88" fill="#F5F5F5"/>
<g id="Logo">
<path d="M-172 -430C-172 -431.105 -171.105 -432 -170 -432H981C982.105 -432 983 -431.105 983 -430V3252C983 3253.1 982.105 3254 981 3254H-170C-171.105 3254 -172 3253.1 -172 3252V-430Z" fill="white" fill-opacity="0.3"/>
<path d="M-170 -432V-431H981V-432V-433H-170V-432ZM983 -430H982V3252H983H984V-430H983ZM981 3254V3253H-170V3254V3255H981V3254ZM-172 3252H-171V-430H-172H-173V3252H-172ZM-170 3254V3253C-170.552 3253 -171 3252.55 -171 3252H-172H-173C-173 3253.66 -171.657 3255 -170 3255V3254ZM983 3252H982C982 3252.55 981.552 3253 981 3253V3254V3255C982.657 3255 984 3253.66 984 3252H983ZM981 -432V-431C981.552 -431 982 -430.552 982 -430H983H984C984 -431.657 982.657 -433 981 -433V-432ZM-170 -432V-433C-171.657 -433 -173 -431.657 -173 -430H-172H-171C-171 -430.552 -170.552 -431 -170 -431V-432Z" fill="black" fill-opacity="0.6"/>
<g id="Logo_2">
<rect x="-37.5" y="-204.5" width="886" height="3343.63" rx="4.5" stroke="#9747FF" stroke-dasharray="10 5"/>
<g id="type=symbol, density=large">
<path id="logo-symbol-black" d="M91.418 64C95.3695 58.2511 97.6662 51.4037 97.6662 44C97.6662 36.5963 95.3695 29.7489 91.418 24H69.1783C77.3809 27.1526 83.2725 34.8987 83.2725 44C83.2725 53.1013 77.3809 60.8474 69.1783 64H91.418ZM52.4879 64H69.1783V24H52.4879V64ZM30.2482 64H52.4879C44.2853 60.8474 38.3937 53.1013 38.3937 44C38.3937 34.8987 44.2853 27.1526 52.4879 24H30.2482C26.2967 29.7489 24 36.5963 24 44C24 51.4037 26.2967 58.2511 30.2482 64Z" fill="black"/>
</g>
</g>
</g>
</svg>
