<svg width="340" height="88" viewBox="0 0 340 88" fill="none" xmlns="http://www.w3.org/2000/svg">
<rect width="340" height="88" fill="#F5F5F5"/>
<g id="Logo">
<path d="M-172 -805C-172 -806.105 -171.105 -807 -170 -807H981C982.105 -807 983 -806.105 983 -805V2877C983 2878.1 982.105 2879 981 2879H-170C-171.105 2879 -172 2878.1 -172 2877V-805Z" fill="white" fill-opacity="0.3"/>
<path d="M-170 -807V-806H981V-807V-808H-170V-807ZM983 -805H982V2877H983H984V-805H983ZM981 2879V2878H-170V2879V2880H981V2879ZM-172 2877H-171V-805H-172H-173V2877H-172ZM-170 2879V2878C-170.552 2878 -171 2877.55 -171 2877H-172H-173C-173 2878.66 -171.657 2880 -170 2880V2879ZM983 2877H982C982 2877.55 981.552 2878 981 2878V2879V2880C982.657 2880 984 2878.66 984 2877H983ZM981 -807V-806C981.552 -806 982 -805.552 982 -805H983H984C984 -806.657 982.657 -808 981 -808V-807ZM-170 -807V-808C-171.657 -808 -173 -806.657 -173 -805H-172H-171C-171 -805.552 -170.552 -806 -170 -806V-807Z" fill="black" fill-opacity="0.6"/>
<g id="Logo_2">
<rect x="-37.5" y="-579.5" width="886" height="3343.63" rx="4.5" stroke="#9747FF" stroke-dasharray="10 5"/>
<g id="type=default-lockup, density=large">
<path id="logo-lockup-black" d="M91.4322 63.9857C95.3837 58.2368 97.6805 51.3894 97.6805 43.9857C97.6805 36.582 95.3837 29.7489 91.4322 24H69.1926C77.3951 27.1526 83.2867 34.8987 83.2867 44C83.2867 53.1013 77.3951 60.8474 69.1926 64H91.4322V63.9857ZM52.4879 63.9857H69.1783V24H52.4879V63.9857ZM30.2482 63.9857H52.4879C44.2853 60.8331 38.3937 53.087 38.3937 43.9857C38.3937 34.8845 44.2996 27.1526 52.4879 24H30.2482C26.2967 29.7489 24 36.5963 24 44C24 51.4037 26.2967 58.2368 30.2482 63.9857ZM246.482 41.1469V35.5977H245.783C241.832 35.5977 239.635 37.5949 238.836 39.6919H238.736V35.8973H232.331V61.6462H238.979V47.7518C238.979 43.3581 240.976 41.1469 245.027 41.1469H246.482ZM260.876 57.3952C258.722 57.3952 257.281 56.4964 256.425 54.699C255.969 53.6434 255.826 52.7019 255.826 50.1484V35.8973H249.178V50.2482C249.178 53.1013 249.378 54.7418 249.735 55.9401C250.99 60.5335 254.528 62.4451 258.579 62.4451C262.374 62.4451 264.927 60.5906 266.126 58.5934H266.183V61.6462H272.588V35.8973H265.94V50.291C265.94 52.5449 265.74 53.6434 265.341 54.485C264.528 56.2967 262.93 57.3952 260.876 57.3952ZM300.262 40.3909H303.815V54.7418C303.815 55.7974 303.872 56.6962 303.971 57.3381C304.328 59.7917 305.427 60.933 307.424 61.3894C308.28 61.5892 309.378 61.6462 312.017 61.6462H315.27V57.1526H313.772C311.218 57.1526 310.476 56.8531 310.476 53.9001V40.4051H315.17V35.8973H310.476V28.7504H303.829V35.8973H300.277V40.3909H300.262ZM275.469 53.1869C275.769 60.0342 281.418 62.2882 287.31 62.2882C293.757 62.2882 298.75 59.535 298.75 53.7432C298.75 48.7504 294.2 46.9387 290.048 46.0399L287.295 45.4408C284.542 44.8417 282.602 44.1427 282.602 42.0884C282.602 40.0913 284.499 39.2924 286.796 39.2924C289.592 39.2924 291.489 40.3481 291.846 43.5435H298.037C297.538 37.1954 292.645 35.0984 286.996 35.0984C281.546 35.0984 276.154 37.3524 276.154 42.9444C276.154 47.8944 280.106 49.5492 284.157 50.4479L286.411 50.9472C290.106 51.7461 292.06 52.5449 292.06 54.6419C292.06 57.0956 289.464 58.0371 287.367 58.0371C284.613 58.0371 282.017 56.5392 281.817 53.1869H275.469ZM234.542 31.4465V26.3966H206.354V31.4465H216.953V61.6462H223.957V31.4465H234.542ZM197.652 39.4922C201.347 39.4922 203.643 42.3452 203.601 46.0399H191.603C191.903 42.3452 194.1 39.4922 197.652 39.4922ZM203.7 54.1427C202.902 55.8402 201.247 57.6377 198.208 57.6377C194.913 57.6377 191.86 55.5407 191.603 50.3909H210.391V49.7347C210.391 47.6805 210.191 45.883 209.735 44.3424C208.18 38.893 204.086 35.0984 197.638 35.0984C189.835 35.0984 184.785 40.8902 184.785 48.6933C184.785 56.4394 189.735 62.2882 197.98 62.2882C204.128 62.2882 208.28 58.9929 210.077 54.1427H203.7ZM169.863 40.1484C172.017 40.1484 173.458 41.0471 174.314 42.8445C174.77 43.9001 174.913 44.8417 174.913 47.3952V61.6462H181.561V47.2953C181.561 44.4422 181.361 42.8017 181.004 41.6034C179.749 37.01 176.211 35.0984 172.16 35.0984C168.308 35.0984 165.755 36.8959 164.613 38.9501H164.556V35.8973H158.151V61.6462H164.799V47.1954C164.799 44.9415 164.999 43.8431 165.398 43.0014C166.211 41.2468 167.809 40.1484 169.863 40.1484ZM138.066 30.9472C144.114 30.9472 147.31 36.3395 147.31 44.0999C147.31 51.9458 144.114 57.2525 138.066 57.2525C132.117 57.2525 128.864 51.9601 128.864 44.0999C128.864 36.3538 132.117 30.9472 138.066 30.9472ZM138.066 62.2882C148.208 62.2882 154.314 54.9415 154.314 44.0856C154.314 33.4437 147.966 25.883 138.066 25.883C128.265 25.883 121.874 33.4294 121.874 44.0856C121.874 54.9415 127.866 62.2882 138.066 62.2882Z" fill="black"/>
</g>
</g>
</g>
</svg>
