<svg width="197" height="131" viewBox="0 0 197 131" fill="none" xmlns="http://www.w3.org/2000/svg">
<rect width="197" height="131" fill="#F5F5F5"/>
<g id="Logo">
<path d="M-172 -1256.6C-172 -1257.7 -171.105 -1258.6 -170 -1258.6H981C982.105 -1258.6 983 -1257.7 983 -1256.6V2425.4C983 2426.51 982.105 2427.4 981 2427.4H-170C-171.105 2427.4 -172 2426.51 -172 2425.4V-1256.6Z" fill="white" fill-opacity="0.3"/>
<path d="M-170 -1258.6V-1257.6H981V-1258.6V-1259.6H-170V-1258.6ZM983 -1256.6H982V2425.4H983H984V-1256.6H983ZM981 2427.4V2426.4H-170V2427.4V2428.4H981V2427.4ZM-172 2425.4H-171V-1256.6H-172H-173V2425.4H-172ZM-170 2427.4V2426.4C-170.552 2426.4 -171 2425.95 -171 2425.4H-172H-173C-173 2427.06 -171.657 2428.4 -170 2428.4V2427.4ZM983 2425.4H982C982 2425.95 981.552 2426.4 981 2426.4V2427.4V2428.4C982.657 2428.4 984 2427.06 984 2425.4H983ZM981 -1258.6V-1257.6C981.552 -1257.6 982 -1257.15 982 -1256.6H983H984C984 -1258.26 982.657 -1259.6 981 -1259.6V-1258.6ZM-170 -1258.6V-1259.6C-171.657 -1259.6 -173 -1258.26 -173 -1256.6H-172H-171C-171 -1257.15 -170.552 -1257.6 -170 -1257.6V-1258.6Z" fill="black" fill-opacity="0.6"/>
<g id="Logo_2">
<rect x="-37.5" y="-1031.1" width="886" height="3343.63" rx="4.5" stroke="#9747FF" stroke-dasharray="10 5"/>
<g id="type=default-vertical-lockup, density=large">
<g id="logo-lockup-stacked-black">
<path d="M126.849 86.1762V97.1096C126.849 99.0638 126.959 99.7918 127.308 100.599C127.964 101.983 129.072 102.671 130.725 102.671C132.3 102.671 133.526 101.833 134.143 100.448C134.452 99.7996 134.602 98.9529 134.602 97.2283V86.1762H139.705V105.939H134.792V103.597H134.752C133.834 105.14 131.88 106.556 128.961 106.556C125.852 106.556 123.122 105.092 122.165 101.564C121.896 100.646 121.746 99.3802 121.746 97.1887V86.1762H126.849Z" fill="black"/>
<path fill-rule="evenodd" clip-rule="evenodd" d="M36.4367 78.494C44.0316 78.494 48.9051 84.2932 48.9051 92.4657C48.9051 100.796 44.2294 106.437 36.4367 106.437C28.6122 106.437 24.0079 100.796 24 92.4657C24 84.2853 28.9129 78.494 36.4367 78.494ZM36.4367 82.3708C31.8718 82.3708 29.3797 86.5163 29.3797 92.4657C29.3797 98.4942 31.8718 102.561 36.4367 102.561C41.0807 102.561 43.5332 98.4942 43.5332 92.4657C43.5332 86.5163 41.0807 82.3708 36.4367 82.3708Z" fill="black"/>
<path fill-rule="evenodd" clip-rule="evenodd" d="M82.1805 85.5669C87.133 85.5669 90.282 88.4783 91.4687 92.6634C91.8168 93.8501 91.9672 95.2348 91.9672 96.8092V97.3077H77.5366C77.7265 101.255 80.0683 102.869 82.5999 102.869C84.9417 102.869 86.2077 101.485 86.8248 100.179H91.7377C90.3532 103.906 87.1727 106.437 82.4495 106.437C76.1125 106.437 72.3151 101.952 72.3151 96.0022C72.3151 90.0211 76.1916 85.567 82.1805 85.5669ZM82.1805 88.937C79.4512 88.9371 77.766 91.1208 77.5366 93.9609H86.7457C86.7852 91.1286 85.0207 88.937 82.1805 88.937Z" fill="black"/>
<path d="M150.789 85.551C155.124 85.551 158.882 87.1651 159.27 92.0385H154.515C154.246 89.586 152.79 88.7789 150.638 88.7789C148.874 88.7789 147.418 89.3962 147.418 90.931C147.418 92.5053 148.914 93.0434 151.026 93.5023L153.138 93.9609C156.327 94.6491 159.816 96.0338 159.816 99.8708C159.816 104.325 155.979 106.437 151.026 106.437C146.493 106.437 142.157 104.712 141.928 99.4514H146.793C146.944 102.023 148.937 103.178 151.05 103.178C152.664 103.178 154.657 102.45 154.657 100.567C154.657 98.9531 153.162 98.3438 150.322 97.7268L148.597 97.3391C145.488 96.6429 142.458 95.377 142.458 91.5796C142.458 87.2758 146.604 85.551 150.789 85.551Z" fill="black"/>
<path d="M62.6078 85.5591C65.7169 85.5591 68.4462 87.0227 69.4035 90.5512C69.6725 91.4689 69.8229 92.7347 69.8229 94.9261V105.939H64.72V94.9974C64.72 93.0433 64.6091 92.3155 64.2611 91.5086C63.6044 90.1241 62.497 89.4356 60.8436 89.4355C59.2692 89.4355 58.0429 90.2823 57.4258 91.6272C57.1173 92.276 56.9668 93.1224 56.9668 94.847V105.939H51.864V86.1762H56.7769V88.518H56.8164C57.6946 86.9436 59.6568 85.5591 62.6078 85.5591Z" fill="black"/>
<path d="M110.496 78.8817V82.7584H102.363V105.939H96.991V82.7584H88.858V78.8817H110.496Z" fill="black"/>
<path d="M119.673 85.9468V90.2031H118.557C115.448 90.2031 113.913 91.8883 113.913 95.2664V105.939H108.811V86.1762H113.724V89.0956H113.803C114.412 87.4816 116.105 85.9468 119.135 85.9468H119.673Z" fill="black"/>
<path d="M168.787 80.6698V86.1604H172.395V89.6177H168.787V99.9817C168.787 102.244 169.365 102.474 171.319 102.474H172.474V105.931H169.982C167.949 105.931 167.102 105.892 166.453 105.741C164.919 105.393 164.072 104.515 163.803 102.632C163.724 102.134 163.684 101.445 163.684 100.638V89.6255H160.963V86.1604H163.684V80.6698H168.787Z" fill="black"/>
<path d="M128.866 24C132.822 29.7595 135.124 36.6031 135.124 44.0162C135.124 51.4291 132.822 58.2806 128.866 64.0401V64.0478H106.595C114.807 60.8912 120.71 53.1379 120.71 44.0239C120.71 34.9099 114.799 27.1567 106.595 24H128.866Z" fill="black"/>
<path d="M89.8786 24C81.6665 27.1567 75.7643 34.9179 75.7643 44.0239C75.7643 53.13 81.6744 60.8913 89.8786 64.0401H67.6076C63.6598 58.2884 61.3499 51.4369 61.3499 44.0239C61.3499 36.6109 63.6519 29.7595 67.6076 24H89.8786Z" fill="black"/>
<path d="M106.595 64.0401H89.8786V24H106.595V64.0401Z" fill="black"/>
</g>
</g>
</g>
</g>
</svg>
