<svg width="397" height="137" viewBox="0 0 397 137" fill="none" xmlns="http://www.w3.org/2000/svg">
<rect width="397" height="137" fill="#F5F5F5"/>
<g id="Logo">
<path d="M-172 -2271.05C-172 -2272.15 -171.105 -2273.05 -170 -2273.05H981C982.105 -2273.05 983 -2272.15 983 -2271.05V1410.95C983 1412.06 982.105 1412.95 981 1412.95H-170C-171.105 1412.95 -172 1412.06 -172 1410.95V-2271.05Z" fill="white" fill-opacity="0.3"/>
<path d="M-170 -2273.05V-2272.05H981V-2273.05V-2274.05H-170V-2273.05ZM983 -2271.05H982V1410.95H983H984V-2271.05H983ZM981 1412.95V1411.95H-170V1412.95V1413.95H981V1412.95ZM-172 1410.95H-171V-2271.05H-172H-173V1410.95H-172ZM-170 1412.95V1411.95C-170.552 1411.95 -171 1411.51 -171 1410.95H-172H-173C-173 1412.61 -171.657 1413.95 -170 1413.95V1412.95ZM983 1410.95H982C982 1411.51 981.552 1411.95 981 1411.95V1412.95V1413.95C982.657 1413.95 984 1412.61 984 1410.95H983ZM981 -2273.05V-2272.05C981.552 -2272.05 982 -2271.6 982 -2271.05H983H984C984 -2272.7 982.657 -2274.05 981 -2274.05V-2273.05ZM-170 -2273.05V-2274.05C-171.657 -2274.05 -173 -2272.7 -173 -2271.05H-172H-171C-171 -2271.6 -170.552 -2272.05 -170 -2272.05V-2273.05Z" fill="black" fill-opacity="0.6"/>
<g id="Logo_2">
<rect x="-37.5" y="-2045.55" width="886" height="3343.63" rx="4.5" stroke="#9747FF" stroke-dasharray="10 5"/>
<g id="type=subbrand-vertical-lockup, density=large">
<g id="lockup">
<path id="Vector" d="M60.5947 44.2034C62.5912 41.2987 63.7517 37.839 63.7517 34.0981C63.7517 30.3573 62.5912 26.9047 60.5947 24H49.3577C53.5022 25.5929 56.479 29.5068 56.479 34.1053C56.479 38.7039 53.5022 42.6177 49.3577 44.2106H60.5947V44.2034ZM40.9174 44.2034H49.3505V24H40.9174V44.2034ZM29.6804 44.2034H40.9174C36.7729 42.6105 33.7961 38.6967 33.7961 34.0981C33.7961 29.4995 36.7801 25.5929 40.9174 24H29.6804C27.6839 26.9047 26.5234 30.3645 26.5234 34.1053C26.5234 37.8462 27.6839 41.2987 29.6804 44.2034ZM138.936 32.6638V29.8599H138.583C136.586 29.8599 135.476 30.869 135.073 31.9286H135.022V30.0113H131.786V43.0214H135.145V36.001C135.145 33.781 136.154 32.6638 138.201 32.6638H138.936ZM146.209 40.8734C145.12 40.8734 144.392 40.4193 143.96 39.5112C143.729 38.9778 143.657 38.5021 143.657 37.2119V30.0113H140.298V37.2623C140.298 38.7039 140.399 39.5328 140.58 40.1382C141.214 42.4592 143.001 43.425 145.048 43.425C146.966 43.425 148.256 42.488 148.861 41.4789H148.89V43.0214H152.126V30.0113H148.768V37.284C148.768 38.4228 148.667 38.9778 148.465 39.403C148.054 40.3184 147.247 40.8734 146.209 40.8734ZM166.11 32.2818H167.904V39.5328C167.904 40.0662 167.933 40.5203 167.984 40.8446C168.164 42.0843 168.719 42.661 169.728 42.8916C170.16 42.9925 170.715 43.0214 172.049 43.0214H173.692V40.7509H172.935C171.645 40.7509 171.27 40.5995 171.27 39.1075V32.289H173.642V30.0113H171.27V26.4002H167.911V30.0113H166.117V32.2818H166.11ZM153.582 38.7471C153.734 42.2069 156.588 43.3457 159.565 43.3457C162.823 43.3457 165.345 41.9546 165.345 39.0282C165.345 36.5055 163.046 35.5901 160.949 35.136L159.558 34.8333C158.167 34.5306 157.186 34.1774 157.186 33.1395C157.186 32.1304 158.145 31.7268 159.305 31.7268C160.718 31.7268 161.677 32.2601 161.857 33.8747H164.985C164.733 30.6672 162.261 29.6077 159.406 29.6077C156.653 29.6077 153.928 30.7465 153.928 33.5719C153.928 36.0731 155.925 36.9092 157.972 37.3632L159.111 37.6155C160.978 38.0192 161.965 38.4228 161.965 39.4823C161.965 40.7221 160.653 41.1978 159.594 41.1978C158.203 41.1978 156.891 40.441 156.79 38.7471H153.582ZM132.903 27.7625V25.2109H118.661V27.7625H124.016V43.0214H127.555V27.7625H132.903ZM114.264 31.8277C116.131 31.8277 117.291 33.2692 117.27 35.136H111.208C111.359 33.2692 112.469 31.8277 114.264 31.8277ZM117.32 39.2301C116.916 40.0878 116.08 40.996 114.545 40.996C112.88 40.996 111.338 39.9364 111.208 37.3344H120.7V37.0029C120.7 35.9649 120.6 35.0568 120.369 34.2783C119.583 31.5249 117.515 29.6077 114.257 29.6077C110.314 29.6077 107.762 32.534 107.762 36.4767C107.762 40.3905 110.264 43.3457 114.43 43.3457C117.536 43.3457 119.634 41.6807 120.542 39.2301H117.32ZM100.223 32.1592C101.311 32.1592 102.039 32.6133 102.472 33.5215C102.703 34.0549 102.775 34.5306 102.775 35.8208V43.0214H106.133V35.7703C106.133 34.3288 106.033 33.4999 105.852 32.8944C105.218 30.5735 103.431 29.6077 101.384 29.6077C99.4374 29.6077 98.1473 30.5158 97.5706 31.5538H97.5418V30.0113H94.3055V43.0214H97.6643V35.7199C97.6643 34.581 97.7652 34.026 97.9671 33.6008C98.3779 32.7142 99.1852 32.1592 100.223 32.1592ZM84.1569 27.5102C87.213 27.5102 88.8276 30.2347 88.8276 34.1558C88.8276 38.1201 87.213 40.8014 84.1569 40.8014C81.1513 40.8014 79.5079 38.1273 79.5079 34.1558C79.5079 30.2419 81.1513 27.5102 84.1569 27.5102ZM84.1569 43.3457C89.2817 43.3457 92.3666 39.6337 92.3666 34.1486C92.3666 28.7716 89.1591 24.9514 84.1569 24.9514C79.2052 24.9514 75.9761 28.7644 75.9761 34.1486C75.9761 39.6337 79.0034 43.3457 84.1569 43.3457Z" fill="black"/>
<path id="DataGuidance" d="M28.8036 98.3438V58.3139H42.814C48.4754 58.3139 52.0209 59.286 55.0517 61.3447C59.6266 64.4327 62.1428 69.9225 62.1428 77.9285C62.1428 84.6764 60.4272 89.9947 56.9389 93.483C53.8509 96.6282 49.3904 98.3438 43.2715 98.3438H28.8036ZM34.0075 62.4312V94.2264H41.6703C51.6778 94.2264 56.7673 89.8231 56.7673 78.3288C56.7673 72.3243 55.5092 68.207 52.5356 65.6336C50.0194 63.4606 46.7598 62.4312 41.0985 62.4312H34.0075ZM89.6986 77.757V92.568C89.6986 94.5123 90.3848 94.9126 91.8144 94.9126C92.1576 94.9126 92.3863 94.9126 92.7866 94.8554V98.3438C91.8716 98.4581 91.4713 98.4581 90.3276 98.4581C86.8965 98.4581 85.3525 97.3716 85.3525 94.7982V94.5695H85.1237C83.5225 97.0857 80.0914 98.9728 75.4594 98.9728C69.6265 98.9728 64.9372 95.942 64.9372 90.2234C64.9372 83.7043 71.342 82.0459 78.0899 81.0737L80.7776 80.6734C84.3231 80.1587 84.9522 79.4153 84.9522 77.1279C84.9522 73.9827 83.1794 71.924 78.2043 71.924C73.5723 71.924 71.0561 74.0399 71.0561 78.4432H66.2525C66.2525 71.1234 71.628 68.207 78.3758 68.207C84.1516 68.207 89.6986 69.6366 89.6986 77.757ZM85.0666 87.5357V82.8465C84.6091 83.2468 83.8657 83.5899 81.807 83.9902L78.433 84.6764C72.6573 85.8773 70.0268 86.7351 70.0268 90.0518C70.0268 93.3686 72.6573 95.3129 76.4887 95.3129C80.5489 95.3129 85.0666 93.0255 85.0666 87.5357ZM102.21 59.8007V68.8932H108.214V72.6674H102.21V90.7953C102.21 93.5402 102.553 94.6267 105.755 94.6267C106.27 94.6267 106.956 94.6267 107.7 94.5695V98.5153C106.327 98.6297 105.755 98.6869 104.326 98.6869C101.695 98.6869 99.9223 98.3438 98.8929 97.3716C97.7492 96.3423 97.4061 94.6267 97.4061 91.5959V72.6674H92.7169V68.8932H97.4061V59.8007H102.21ZM134.379 77.757V92.568C134.379 94.5123 135.065 94.9126 136.495 94.9126C136.838 94.9126 137.067 94.9126 137.467 94.8554V98.3438C136.552 98.4581 136.152 98.4581 135.008 98.4581C131.577 98.4581 130.033 97.3716 130.033 94.7982V94.5695H129.804C128.203 97.0857 124.772 98.9728 120.14 98.9728C114.307 98.9728 109.618 95.942 109.618 90.2234C109.618 83.7043 116.023 82.0459 122.771 81.0737L125.458 80.6734C129.004 80.1587 129.633 79.4153 129.633 77.1279C129.633 73.9827 127.86 71.924 122.885 71.924C118.253 71.924 115.737 74.0399 115.737 78.4432H110.933C110.933 71.1234 116.309 68.207 123.057 68.207C128.832 68.207 134.379 69.6366 134.379 77.757ZM129.747 87.5357V82.8465C129.29 83.2468 128.546 83.5899 126.488 83.9902L123.114 84.6764C117.338 85.8773 114.707 86.7351 114.707 90.0518C114.707 93.3686 117.338 95.3129 121.169 95.3129C125.23 95.3129 129.747 93.0255 129.747 87.5357ZM175.54 77.5282V98.3438H171.537L170.965 92.568H170.794C168.392 96.2851 163.646 99.1443 157.355 99.1443C145.175 99.1443 138.942 89.5372 138.942 78.386C138.942 67.2348 145.575 57.4561 158.27 57.4561C167.306 57.4561 173.882 62.2597 175.254 70.8947H170.279C169.707 66.4914 165.99 61.5163 158.213 61.5163C148.492 61.5163 144.203 69.6366 144.203 78.386C144.203 87.1926 148.377 95.0842 158.099 95.0842C166.505 95.0842 170.965 89.5944 170.965 81.5884H158.499V77.5282H175.54ZM200.59 68.8932H205.394V98.3438H200.705V94.3408H200.647C199.161 96.7426 196.301 99.0872 191.04 99.0872C187.838 99.0872 185.322 98.1722 183.549 96.3423C181.833 94.6267 180.918 91.939 180.918 88.2219V68.8932H185.722V86.9066C185.722 93.0827 188.124 95.0842 192.47 95.0842C195.329 95.0842 197.216 93.9405 198.646 92.1105C199.961 90.4521 200.59 87.9932 200.59 85.9345V68.8932ZM216.728 64.5471H211.924V58.3139H216.728V64.5471ZM211.924 68.8932H216.728V98.3438H211.924V68.8932ZM248.596 98.3438H243.85V94.6267H243.735C241.963 97.1429 238.817 99.0872 234.3 99.0872C226.58 99.0872 221.147 92.9683 221.147 83.6471C221.147 74.7833 226.809 68.0354 234.643 68.0354C239.218 68.0354 242.02 69.9797 243.678 72.1528H243.793V58.3139H248.596V98.3438ZM235.158 71.924C229.21 71.924 226.179 77.1851 226.179 83.6471C226.179 90.0518 229.267 95.1414 235.329 95.1414C241.219 95.1414 244.021 91.0812 244.021 83.4183C244.021 76.2129 240.933 71.924 235.158 71.924ZM277.857 77.757V92.568C277.857 94.5123 278.543 94.9126 279.973 94.9126C280.316 94.9126 280.545 94.9126 280.945 94.8554V98.3438C280.03 98.4581 279.63 98.4581 278.486 98.4581C275.055 98.4581 273.511 97.3716 273.511 94.7982V94.5695H273.282C271.681 97.0857 268.25 98.9728 263.618 98.9728C257.785 98.9728 253.096 95.942 253.096 90.2234C253.096 83.7043 259.5 82.0459 266.248 81.0737L268.936 80.6734C272.481 80.1587 273.11 79.4153 273.11 77.1279C273.11 73.9827 271.338 71.924 266.363 71.924C261.731 71.924 259.214 74.0399 259.214 78.4432H254.411C254.411 71.1234 259.786 68.207 266.534 68.207C272.31 68.207 277.857 69.6366 277.857 77.757ZM273.225 87.5357V82.8465C272.767 83.2468 272.024 83.5899 269.965 83.9902L266.591 84.6764C260.816 85.8773 258.185 86.7351 258.185 90.0518C258.185 93.3686 260.816 95.3129 264.647 95.3129C268.707 95.3129 273.225 93.0255 273.225 87.5357ZM289.11 98.3438H284.306V68.8932H288.996V72.7818H289.053C290.54 70.4944 293.57 68.1498 298.717 68.1498C301.919 68.1498 304.55 69.0648 306.323 70.8947C308.038 72.6103 308.953 75.298 308.953 79.015V98.3438H304.15V80.3303C304.15 74.1543 301.805 72.1528 297.459 72.1528C294.6 72.1528 292.484 73.2965 291.054 75.1264C289.739 76.7848 289.11 79.2438 289.11 81.3025V98.3438ZM340.182 78.6719H335.322C334.807 74.8405 332.348 71.924 327.373 71.924C321.426 71.924 318.052 76.3273 318.052 83.8186C318.052 90.6237 321.711 95.1414 327.316 95.1414C331.948 95.1414 334.807 92.1677 335.436 87.8788H340.411C339.382 94.3408 334.635 99.0872 327.316 99.0872C318.338 99.0872 313.019 92.5108 313.019 83.7614C313.019 74.6118 318.28 68.0926 327.544 68.0926C334.75 68.0926 339.382 72.0384 340.182 78.6719ZM370.019 84.4477H347.145C347.145 90.6809 350.919 95.1414 356.752 95.1414C362.242 95.1414 364.301 91.5387 365.159 88.851H370.019C368.418 95.027 363.672 99.0872 356.581 99.0872C347.545 99.0872 342.284 93.2542 342.284 83.5327C342.284 74.4974 347.774 68.0926 356.581 68.0926C365.902 68.0926 370.019 74.8405 370.019 84.4477ZM347.202 80.845H364.93C364.701 75.8698 361.785 71.7525 356.409 71.7525C350.748 71.7525 347.488 75.8698 347.202 80.845Z" fill="black"/>
</g>
</g>
</g>
</g>
</svg>
