<svg width="617" height="109" viewBox="0 0 617 109" fill="none" xmlns="http://www.w3.org/2000/svg">
<rect width="617" height="109" fill="#F5F5F5"/>
<g id="Logo">
<path d="M-172 -2789.35C-172 -2790.45 -171.105 -2791.35 -170 -2791.35H981C982.105 -2791.35 983 -2790.45 983 -2789.35V892.652C983 893.757 982.105 894.652 981 894.652H-170C-171.105 894.652 -172 893.757 -172 892.652V-2789.35Z" fill="white" fill-opacity="0.3"/>
<path d="M-170 -2791.35V-2790.35H981V-2791.35V-2792.35H-170V-2791.35ZM983 -2789.35H982V892.652H983H984V-2789.35H983ZM981 894.652V893.652H-170V894.652V895.652H981V894.652ZM-172 892.652H-171V-2789.35H-172H-173V892.652H-172ZM-170 894.652V893.652C-170.552 893.652 -171 893.205 -171 892.652H-172H-173C-173 894.309 -171.657 895.652 -170 895.652V894.652ZM983 892.652H982C982 893.205 981.552 893.652 981 893.652V894.652V895.652C982.657 895.652 984 894.309 984 892.652H983ZM981 -2791.35V-2790.35C981.552 -2790.35 982 -2789.9 982 -2789.35H983H984C984 -2791 982.657 -2792.35 981 -2792.35V-2791.35ZM-170 -2791.35V-2792.35C-171.657 -2792.35 -173 -2791 -173 -2789.35H-172H-171C-171 -2789.9 -170.552 -2790.35 -170 -2790.35V-2791.35Z" fill="black" fill-opacity="0.6"/>
<g id="Logo_2">
<rect x="-37.5" y="-2563.85" width="886" height="3343.63" rx="4.5" stroke="#9747FF" stroke-dasharray="10 5"/>
<g id="type=byot-lockup, density=large">
<g id="lockup">
<path id="Powered by" d="M28.266 72V36.4488H42.8928C47.5652 36.4488 50.1554 37.363 52.0853 39.0897C54.1168 40.9181 55.2341 43.6098 55.2341 46.8602C55.2341 50.3138 53.9644 53.1071 51.6282 54.9354C48.6317 57.2716 44.975 57.3224 41.166 57.3224H32.8368V72H28.266ZM32.8368 40.1055V53.6657H42.8928C47.5652 53.6657 50.8156 51.685 50.8156 46.8602C50.8156 41.9846 47.4128 40.1055 42.7912 40.1055H32.8368ZM68.8404 45.1334C76.6616 45.1334 81.7404 50.3645 81.7404 58.846C81.7404 67.226 76.7124 72.6602 68.8404 72.6602C60.9175 72.6602 55.9404 67.3783 55.9404 58.846C55.9404 50.4661 61.0191 45.1334 68.8404 45.1334ZM68.8404 48.5362C62.8982 48.5362 60.4097 53.1071 60.4097 58.8968C60.4097 64.6358 63.0506 69.2067 68.8404 69.2067C74.6302 69.2067 77.2711 64.6358 77.2711 58.8968C77.2711 53.1071 74.6302 48.5362 68.8404 48.5362ZM90.3227 72L82.0443 45.8445H86.5136L90.3735 59.4555C91.0337 61.7409 92.0495 65.4992 92.6081 67.2768H92.7097C93.4207 64.6866 94.1317 62.0964 94.8936 59.3031L98.601 45.8445H103.172L106.778 59.1508C107.59 62.1472 108.149 63.9756 109.012 67.2768H109.114C110.333 62.9598 110.739 61.487 111.399 59.2016L115.209 45.8445H119.627L111.247 72H106.727L103.02 58.6937C102.156 55.6464 101.597 53.5642 100.886 50.8216H100.785C100.125 53.4118 99.4136 56.2051 98.6518 58.9476L94.9443 72H90.3227ZM144.507 59.6586H124.192C124.192 65.1945 127.544 69.1559 132.724 69.1559C137.6 69.1559 139.428 65.9563 140.19 63.5693H144.507C143.085 69.0543 138.87 72.6602 132.572 72.6602C124.547 72.6602 119.875 67.4799 119.875 58.846C119.875 50.8216 124.751 45.1334 132.572 45.1334C140.85 45.1334 144.507 51.1264 144.507 59.6586ZM124.243 56.459H139.987C139.784 52.0405 137.194 48.3838 132.42 48.3838C127.392 48.3838 124.497 52.0405 124.243 56.459ZM159.713 49.0441C157.783 49.0441 155.955 49.8059 154.685 51.2787C153.466 52.65 152.755 54.6815 152.755 57.6271V72H148.489V45.8445H152.603V49.8567H152.755C153.72 47.3681 156.564 45.1334 160.17 45.1334C160.932 45.1334 161.491 45.235 161.745 45.2858V49.1964C160.83 49.0441 160.17 49.0441 159.713 49.0441ZM186.024 59.6586H165.709C165.709 65.1945 169.061 69.1559 174.241 69.1559C179.117 69.1559 180.945 65.9563 181.707 63.5693H186.024C184.602 69.0543 180.386 72.6602 174.089 72.6602C166.064 72.6602 161.392 67.4799 161.392 58.846C161.392 50.8216 166.267 45.1334 174.089 45.1334C182.367 45.1334 186.024 51.1264 186.024 59.6586ZM165.76 56.459H181.504C181.3 52.0405 178.71 48.3838 173.936 48.3838C168.908 48.3838 166.013 52.0405 165.76 56.459ZM212.505 72H208.289V68.6988H208.188C206.613 70.9335 203.82 72.6602 199.808 72.6602C192.951 72.6602 188.127 67.226 188.127 58.9476C188.127 51.0756 193.155 45.0826 200.112 45.0826C204.175 45.0826 206.664 46.8094 208.137 48.7393H208.238V36.4488H212.505V72ZM200.57 48.5362C195.288 48.5362 192.596 53.2086 192.596 58.9476C192.596 64.6358 195.338 69.1559 200.722 69.1559C205.953 69.1559 208.442 65.55 208.442 58.7445C208.442 52.3453 205.699 48.5362 200.57 48.5362ZM227.654 36.4488H231.92V48.9933H232.022C233.596 46.7586 236.339 45.0826 240.351 45.0826C247.207 45.0826 252.032 50.5169 252.032 58.7953C252.032 66.6673 247.004 72.6602 240.046 72.6602C235.983 72.6602 233.444 70.9335 231.971 69.0035H231.869V72H227.654V36.4488ZM239.589 69.2067C244.871 69.2067 247.563 64.5342 247.563 58.7953C247.563 53.1071 244.82 48.587 239.437 48.587C234.206 48.587 231.717 52.1929 231.717 58.9984C231.717 65.3976 234.459 69.2067 239.589 69.2067ZM262.13 71.8476L251.921 45.8445H256.492L260.606 57.2208C261.723 60.2681 262.942 63.7216 264.263 67.6831H264.364C265.38 64.585 266.548 60.522 267.818 56.8653L271.525 45.8445H275.741L264.821 75.1488C263.094 79.7705 260.758 80.9386 256.797 80.9386C255.73 80.9386 255.273 80.8878 254.562 80.837V77.4343C255.07 77.5358 255.781 77.5358 256.492 77.5358C259.692 77.5358 260.758 76.063 261.876 72.6602L262.13 71.8476Z" fill="black"/>
<path id="Vector" d="M370.694 74.2669C374.602 68.5809 376.874 61.8085 376.874 54.4859C376.874 47.1632 374.602 40.4049 370.694 34.7189H348.698C356.811 37.8371 362.638 45.4983 362.638 54.5C362.638 63.5016 356.811 71.1629 348.698 74.281H370.694V74.2669ZM332.176 74.2669H348.684V34.7189H332.176V74.2669ZM310.18 74.2669H332.176C324.063 71.1488 318.236 63.4875 318.236 54.4859C318.236 45.4842 324.077 37.8371 332.176 34.7189H310.18C306.272 40.4049 304 47.1773 304 54.5C304 61.8226 306.272 68.5809 310.18 74.2669ZM524.046 51.6781V46.1897H523.355C519.447 46.1897 517.274 48.165 516.484 50.239H516.385V46.486H510.05V71.953H516.625V58.2107C516.625 53.8651 518.6 51.6781 522.607 51.6781H524.046ZM538.283 67.7485C536.152 67.7485 534.727 66.8596 533.881 65.0818C533.429 64.0378 533.288 63.1066 533.288 60.581V46.486H526.713V60.6798C526.713 63.5016 526.911 65.1242 527.263 66.3093C528.505 70.8525 532.004 72.7431 536.011 72.7431C539.764 72.7431 542.29 70.9089 543.475 68.9336H543.531V71.953H549.866V46.486H543.291V60.7221C543.291 62.9514 543.094 64.0378 542.699 64.8702C541.895 66.6621 540.314 67.7485 538.283 67.7485ZM577.238 50.9304H580.751V65.1242C580.751 66.1682 580.808 67.0571 580.906 67.692C581.259 70.1188 582.345 71.2475 584.321 71.699C585.167 71.8966 586.254 71.953 588.864 71.953H592.081V67.5086H590.599C588.074 67.5086 587.34 67.2123 587.34 64.2917V50.9445H591.982V46.486H587.34V39.4173H580.765V46.486H577.252V50.9304H577.238ZM552.716 63.5863C553.013 70.3587 558.6 72.5879 564.427 72.5879C570.804 72.5879 575.742 69.8648 575.742 64.1365C575.742 59.1983 571.242 57.4065 567.136 56.5176L564.413 55.925C561.69 55.3324 559.771 54.6411 559.771 52.6093C559.771 50.6341 561.647 49.844 563.919 49.844C566.684 49.844 568.561 50.888 568.914 54.0485H575.037C574.543 47.7699 569.704 45.6959 564.116 45.6959C558.727 45.6959 553.393 47.9251 553.393 53.4559C553.393 58.3518 557.302 59.9884 561.309 60.8773L563.538 61.3711C567.192 62.1612 569.125 62.9514 569.125 65.0254C569.125 67.4522 566.557 68.3834 564.483 68.3834C561.76 68.3834 559.192 66.9019 558.995 63.5863H552.716ZM512.237 42.0839V37.0893H484.357V42.0839H494.84V71.953H501.768V42.0839H512.237ZM475.751 50.0415C479.405 50.0415 481.677 52.8633 481.634 56.5176H469.769C470.065 52.8633 472.238 50.0415 475.751 50.0415ZM481.733 64.5316C480.943 66.2106 479.306 67.9883 476.301 67.9883C473.042 67.9883 470.022 65.9143 469.769 60.8209H488.35V60.1719C488.35 58.1401 488.153 56.3624 487.701 54.8386C486.163 49.4489 482.114 45.6959 475.737 45.6959C468.019 45.6959 463.024 51.4242 463.024 59.1419C463.024 66.8032 467.92 72.5879 476.075 72.5879C482.156 72.5879 486.262 69.3287 488.04 64.5316H481.733ZM448.266 50.6905C450.397 50.6905 451.822 51.5794 452.668 53.3571C453.12 54.4012 453.261 55.3324 453.261 57.858V71.953H459.836V57.7592C459.836 54.9374 459.638 53.3148 459.285 52.1296C458.044 47.5865 454.545 45.6959 450.538 45.6959C446.728 45.6959 444.203 47.4736 443.074 49.5053H443.018V46.486H436.683V71.953H443.257V57.6604C443.257 55.4312 443.455 54.3448 443.85 53.5123C444.654 51.7769 446.234 50.6905 448.266 50.6905ZM416.817 41.5901C422.799 41.5901 425.96 46.9234 425.96 54.5987C425.96 62.3588 422.799 67.6074 416.817 67.6074C410.933 67.6074 407.716 62.3729 407.716 54.5987C407.716 46.9375 410.933 41.5901 416.817 41.5901ZM416.817 72.5879C426.848 72.5879 432.887 65.3217 432.887 54.5846C432.887 44.0592 426.609 36.5813 416.817 36.5813C407.124 36.5813 400.803 44.0451 400.803 54.5846C400.803 65.3217 406.729 72.5879 416.817 72.5879Z" fill="black"/>
</g>
</g>
</g>
</g>
</svg>
