<svg width="674" height="109" viewBox="0 0 674 109" fill="none" xmlns="http://www.w3.org/2000/svg">
<rect width="674" height="109" fill="#F5F5F5"/>
<g id="Logo">
<path d="M-172 -1763.15C-172 -1764.26 -171.105 -1765.15 -170 -1765.15H981C982.105 -1765.15 983 -1764.26 983 -1763.15V1918.85C983 1919.95 982.105 1920.85 981 1920.85H-170C-171.105 1920.85 -172 1919.95 -172 1918.85V-1763.15Z" fill="white" fill-opacity="0.3"/>
<path d="M-170 -1765.15V-1764.15H981V-1765.15V-1766.15H-170V-1765.15ZM983 -1763.15H982V1918.85H983H984V-1763.15H983ZM981 1920.85V1919.85H-170V1920.85V1921.85H981V1920.85ZM-172 1918.85H-171V-1763.15H-172H-173V1918.85H-172ZM-170 1920.85V1919.85C-170.552 1919.85 -171 1919.4 -171 1918.85H-172H-173C-173 1920.5 -171.657 1921.85 -170 1921.85V1920.85ZM983 1918.85H982C982 1919.4 981.552 1919.85 981 1919.85V1920.85V1921.85C982.657 1921.85 984 1920.5 984 1918.85H983ZM981 -1765.15V-1764.15C981.552 -1764.15 982 -1763.71 982 -1763.15H983H984C984 -1764.81 982.657 -1766.15 981 -1766.15V-1765.15ZM-170 -1765.15V-1766.15C-171.657 -1766.15 -173 -1764.81 -173 -1763.15H-172H-171C-171 -1763.71 -170.552 -1764.15 -170 -1764.15V-1765.15Z" fill="black" fill-opacity="0.6"/>
<g id="Logo_2">
<rect x="-37.5" y="-1537.65" width="886" height="3343.63" rx="4.5" stroke="#9747FF" stroke-dasharray="10 5"/>
<g id="type=subbrand-lockup, density=large">
<g id="lockup">
<path id="Vector" d="M90.694 74.267C94.6022 68.581 96.8738 61.8086 96.8738 54.4859C96.8738 47.1633 94.6022 40.405 90.694 34.719H68.6978C76.8106 37.8371 82.6377 45.4984 82.6377 54.5C82.6377 63.5017 76.8106 71.1629 68.6978 74.2811H90.694V74.267ZM52.176 74.267H68.6837V34.719H52.176V74.267ZM30.1798 74.267H52.176C44.0632 71.1488 38.2361 63.4876 38.2361 54.4859C38.2361 45.4843 44.0773 37.8371 52.176 34.719H30.1798C26.2716 40.405 24 47.1774 24 54.5C24 61.8227 26.2716 68.581 30.1798 74.267ZM244.046 51.6782V46.1897H243.355C239.447 46.1897 237.274 48.165 236.484 50.2391H236.385V46.486H230.05V71.9531H236.625V58.2107C236.625 53.8651 238.6 51.6782 242.607 51.6782H244.046ZM258.283 67.7485C256.152 67.7485 254.727 66.8597 253.881 65.0819C253.429 64.0378 253.288 63.1066 253.288 60.5811V46.486H246.713V60.6798C246.713 63.5017 246.911 65.1242 247.263 66.3094C248.505 70.8525 252.004 72.7432 256.011 72.7432C259.764 72.7432 262.29 70.909 263.475 68.9337H263.531V71.9531H269.866V46.486H263.291V60.7222C263.291 62.9514 263.094 64.0378 262.699 64.8703C261.895 66.6621 260.314 67.7485 258.283 67.7485ZM297.238 50.9304H300.751V65.1242C300.751 66.1683 300.808 67.0572 300.906 67.6921C301.259 70.1189 302.345 71.2476 304.321 71.6991C305.167 71.8966 306.254 71.9531 308.864 71.9531H312.081V67.5087H310.599C308.074 67.5087 307.34 67.2124 307.34 64.2918V50.9445H311.982V46.486H307.34V39.4173H300.765V46.486H297.252V50.9304H297.238ZM272.716 63.5863C273.013 70.3587 278.6 72.588 284.427 72.588C290.804 72.588 295.742 69.8649 295.742 64.1366C295.742 59.1984 291.242 57.4065 287.136 56.5176L284.413 55.9251C281.69 55.3325 279.771 54.6411 279.771 52.6094C279.771 50.6341 281.647 49.844 283.919 49.844C286.684 49.844 288.561 50.8881 288.914 54.0485H295.037C294.543 47.77 289.704 45.6959 284.116 45.6959C278.727 45.6959 273.393 47.9252 273.393 53.456C273.393 58.3518 277.302 59.9885 281.309 60.8774L283.538 61.3712C287.192 62.1613 289.125 62.9514 289.125 65.0255C289.125 67.4522 286.557 68.3834 284.483 68.3834C281.76 68.3834 279.192 66.902 278.995 63.5863H272.716ZM232.237 42.084V37.0893H204.357V42.084H214.84V71.9531H221.768V42.084H232.237ZM195.751 50.0415C199.405 50.0415 201.677 52.8634 201.634 56.5176H189.769C190.065 52.8634 192.238 50.0415 195.751 50.0415ZM201.733 64.5316C200.943 66.2106 199.306 67.9884 196.301 67.9884C193.042 67.9884 190.022 65.9143 189.769 60.8209H208.35V60.1719C208.35 58.1402 208.153 56.3624 207.701 54.8387C206.163 49.449 202.114 45.6959 195.737 45.6959C188.019 45.6959 183.024 51.4242 183.024 59.1419C183.024 66.8032 187.92 72.588 196.075 72.588C202.156 72.588 206.262 69.3288 208.04 64.5316H201.733ZM168.266 50.6906C170.397 50.6906 171.822 51.5794 172.668 53.3572C173.12 54.4013 173.261 55.3325 173.261 57.858V71.9531H179.836V57.7593C179.836 54.9374 179.638 53.3149 179.285 52.1297C178.044 47.5865 174.545 45.6959 170.538 45.6959C166.728 45.6959 164.203 47.4737 163.074 49.5054H163.018V46.486H156.683V71.9531H163.257V57.6605C163.257 55.4312 163.455 54.3448 163.85 53.5124C164.654 51.777 166.234 50.6906 168.266 50.6906ZM136.817 41.5902C142.799 41.5902 145.96 46.9234 145.96 54.5988C145.96 62.3588 142.799 67.6074 136.817 67.6074C130.933 67.6074 127.716 62.3729 127.716 54.5988C127.716 46.9375 130.933 41.5902 136.817 41.5902ZM136.817 72.588C146.848 72.588 152.887 65.3218 152.887 54.5847C152.887 44.0593 146.609 36.5814 136.817 36.5814C127.124 36.5814 120.803 44.0451 120.803 54.5847C120.803 65.3218 126.729 72.588 136.817 72.588Z" fill="black"/>
<path id="DataGuidance" d="M343.347 72V36.4488H355.79C360.818 36.4488 363.967 37.3122 366.658 39.1405C370.721 41.883 372.956 46.7586 372.956 53.8689C372.956 59.8618 371.432 64.585 368.334 67.6831C365.592 70.4764 361.63 72 356.196 72H343.347ZM347.969 40.1055V68.3433H354.774C363.662 68.3433 368.182 64.4327 368.182 54.2244C368.182 48.8917 367.065 45.235 364.424 42.9496C362.189 41.0197 359.294 40.1055 354.266 40.1055H347.969ZM397.429 53.7165V66.8705C397.429 68.5972 398.038 68.9528 399.308 68.9528C399.613 68.9528 399.816 68.9528 400.171 68.902V72C399.359 72.1016 399.003 72.1016 397.988 72.1016C394.94 72.1016 393.569 71.1366 393.569 68.8512V68.648H393.366C391.944 70.8827 388.897 72.5587 384.783 72.5587C379.602 72.5587 375.438 69.8669 375.438 64.7882C375.438 58.9984 381.126 57.5256 387.119 56.6622L389.506 56.3067C392.655 55.8496 393.213 55.1894 393.213 53.1579C393.213 50.3645 391.639 48.5362 387.221 48.5362C383.107 48.5362 380.872 50.4153 380.872 54.326H376.606C376.606 47.8252 381.38 45.235 387.373 45.235C392.502 45.235 397.429 46.5047 397.429 53.7165ZM393.315 62.4012V58.2366C392.909 58.5921 392.249 58.8968 390.42 59.2523L387.424 59.8618C382.294 60.9283 379.958 61.6901 379.958 64.6358C379.958 67.5815 382.294 69.3083 385.697 69.3083C389.303 69.3083 393.315 67.2768 393.315 62.4012ZM408.54 37.7693V45.8445H413.873V49.1964H408.54V65.2961C408.54 67.7339 408.845 68.6988 411.689 68.6988C412.146 68.6988 412.756 68.6988 413.416 68.648V72.1524C412.197 72.2539 411.689 72.3047 410.419 72.3047C408.083 72.3047 406.509 72 405.595 71.1366C404.579 70.2224 404.274 68.6988 404.274 66.0071V49.1964H400.109V45.8445H404.274V37.7693H408.54ZM437.111 53.7165V66.8705C437.111 68.5972 437.72 68.9528 438.99 68.9528C439.294 68.9528 439.498 68.9528 439.853 68.902V72C439.04 72.1016 438.685 72.1016 437.669 72.1016C434.622 72.1016 433.251 71.1366 433.251 68.8512V68.648H433.048C431.625 70.8827 428.578 72.5587 424.464 72.5587C419.284 72.5587 415.12 69.8669 415.12 64.7882C415.12 58.9984 420.808 57.5256 426.801 56.6622L429.188 56.3067C432.337 55.8496 432.895 55.1894 432.895 53.1579C432.895 50.3645 431.321 48.5362 426.902 48.5362C422.788 48.5362 420.554 50.4153 420.554 54.326H416.288C416.288 47.8252 421.062 45.235 427.055 45.235C432.184 45.235 437.111 46.5047 437.111 53.7165ZM432.997 62.4012V58.2366C432.59 58.5921 431.93 58.8968 430.102 59.2523L427.105 59.8618C421.976 60.9283 419.64 61.6901 419.64 64.6358C419.64 67.5815 421.976 69.3083 425.379 69.3083C428.985 69.3083 432.997 67.2768 432.997 62.4012ZM473.666 53.5134V72H470.111L469.603 66.8705H469.451C467.318 70.1717 463.103 72.711 457.516 72.711C446.698 72.711 441.162 64.1787 441.162 54.2752C441.162 44.3716 447.054 35.687 458.329 35.687C466.353 35.687 472.194 39.9531 473.412 47.622H468.994C468.486 43.7114 465.185 39.2929 458.278 39.2929C449.644 39.2929 445.835 46.5047 445.835 54.2752C445.835 62.0964 449.542 69.1051 458.176 69.1051C465.642 69.1051 469.603 64.2295 469.603 57.1193H458.532V53.5134H473.666ZM495.914 45.8445H500.18V72H496.015V68.4449H495.964C494.644 70.578 492.105 72.6602 487.432 72.6602C484.588 72.6602 482.353 71.8476 480.779 70.2224C479.255 68.6988 478.443 66.3118 478.443 63.0106V45.8445H482.709V61.8425C482.709 67.3276 484.842 69.1051 488.702 69.1051C491.241 69.1051 492.917 68.0894 494.187 66.4642C495.355 64.9913 495.914 62.8075 495.914 60.9791V45.8445ZM510.246 41.9846H505.979V36.4488H510.246V41.9846ZM505.979 45.8445H510.246V72H505.979V45.8445ZM538.549 72H534.333V68.6988H534.232C532.657 70.9335 529.864 72.6602 525.852 72.6602C518.995 72.6602 514.171 67.226 514.171 58.9476C514.171 51.0756 519.199 45.0826 526.156 45.0826C530.219 45.0826 532.708 46.8094 534.181 48.7393H534.282V36.4488H538.549V72ZM526.613 48.5362C521.332 48.5362 518.64 53.2086 518.64 58.9476C518.64 64.6358 521.382 69.1559 526.766 69.1559C531.997 69.1559 534.486 65.55 534.486 58.7445C534.486 52.3453 531.743 48.5362 526.613 48.5362ZM564.535 53.7165V66.8705C564.535 68.5972 565.145 68.9528 566.415 68.9528C566.719 68.9528 566.922 68.9528 567.278 68.902V72C566.465 72.1016 566.11 72.1016 565.094 72.1016C562.047 72.1016 560.676 71.1366 560.676 68.8512V68.648H560.472C559.05 70.8827 556.003 72.5587 551.889 72.5587C546.709 72.5587 542.544 69.8669 542.544 64.7882C542.544 58.9984 548.233 57.5256 554.226 56.6622L556.613 56.3067C559.761 55.8496 560.32 55.1894 560.32 53.1579C560.32 50.3645 558.746 48.5362 554.327 48.5362C550.213 48.5362 547.979 50.4153 547.979 54.326H543.713C543.713 47.8252 548.487 45.235 554.48 45.235C559.609 45.235 564.535 46.5047 564.535 53.7165ZM560.422 62.4012V58.2366C560.015 58.5921 559.355 58.8968 557.527 59.2523L554.53 59.8618C549.401 60.9283 547.065 61.6901 547.065 64.6358C547.065 67.5815 549.401 69.3083 552.804 69.3083C556.409 69.3083 560.422 67.2768 560.422 62.4012ZM574.529 72H570.263V45.8445H574.428V49.298H574.479C575.799 47.2665 578.491 45.1842 583.062 45.1842C585.906 45.1842 588.242 45.9968 589.816 47.622C591.34 49.1456 592.153 51.5327 592.153 54.8338V72H587.887V56.0019C587.887 50.5169 585.804 48.7393 581.944 48.7393C579.405 48.7393 577.526 49.7551 576.256 51.3803C575.088 52.8531 574.529 55.037 574.529 56.8653V72ZM619.888 54.5291H615.571C615.114 51.1264 612.93 48.5362 608.511 48.5362C603.23 48.5362 600.233 52.4468 600.233 59.1C600.233 65.1437 603.483 69.1559 608.461 69.1559C612.574 69.1559 615.114 66.515 615.672 62.7059H620.091C619.177 68.4449 614.961 72.6602 608.461 72.6602C600.487 72.6602 595.764 66.8197 595.764 59.0492C595.764 50.9232 600.436 45.1334 608.664 45.1334C615.063 45.1334 619.177 48.6378 619.888 54.5291ZM646.387 59.6586H626.072C626.072 65.1945 629.424 69.1559 634.604 69.1559C639.479 69.1559 641.308 65.9563 642.07 63.5693H646.387C644.965 69.0543 640.749 72.6602 634.452 72.6602C626.427 72.6602 621.755 67.4799 621.755 58.846C621.755 50.8216 626.63 45.1334 634.452 45.1334C642.73 45.1334 646.387 51.1264 646.387 59.6586ZM626.122 56.459H641.867C641.663 52.0405 639.073 48.3838 634.299 48.3838C629.271 48.3838 626.376 52.0405 626.122 56.459Z" fill="black"/>
</g>
</g>
</g>
</g>
</svg>
